<?xml version="1.0" encoding="UTF-8"?>
<svg id="Calque_1" xmlns="http://www.w3.org/2000/svg" xmlns:xlink="http://www.w3.org/1999/xlink" viewBox="0 0 520.5 290.91">
  <defs>
    <style>
      .cls-1 {
        font-size: 35.46px;
      }

      .cls-1, .cls-2 {
        fill: #fff;
      }

      .cls-3 {
        font-family: ProximaNova-Regular, 'Proxima Nova';
      }

      .cls-4 {
        font-family: ProximaNova-Bold, 'Proxima Nova';
        font-weight: 700;
      }

      .cls-5 {
        fill: url(#Dégradé_sans_nom_86);
      }

      .cls-6 {
        fill: url(#Dégradé_sans_nom_87);
      }

      .cls-7 {
        letter-spacing: -.03em;
      }
    </style>
    <linearGradient id="Dégradé_sans_nom_87" data-name="Dégradé sans nom 87" x1="3811.74" y1="-8.42" x2="3799.31" y2="-29.95" gradientTransform="translate(3887.1 257.73) rotate(-180)" gradientUnits="userSpaceOnUse">
      <stop offset="0" stop-color="#fff" stop-opacity="0"/>
      <stop offset="1" stop-color="#b3964f"/>
    </linearGradient>
    <linearGradient id="Dégradé_sans_nom_86" data-name="Dégradé sans nom 86" x1="54.15" y1="180.2" x2="100.65" y2="99.65" gradientUnits="userSpaceOnUse">
      <stop offset="0" stop-color="#fff" stop-opacity="0"/>
      <stop offset=".78" stop-color="#c3ad75" stop-opacity=".78"/>
      <stop offset="1" stop-color="#b3964f"/>
    </linearGradient>
  </defs>
  <path class="cls-6" d="M62.55,278.31c11.13-8.01,22.26-16.02,33.39-24.03,4.08,7.21,8.15,14.43,12.23,21.64-5.96-.34-15.77-.12-26.92,3.86-8.66,3.09-15.09,7.37-19.29,10.67.2-4.05.39-8.09.59-12.14Z"/>
  <path class="cls-5" d="M84.62,197.79c-7.37-12.51-14.74-25.03-22.11-37.54-.18-21.38.18-43.53,0-64.92,1.43,13.87,11.46,25.58,24.46,27.22,11.16,1.4,22.39-4.27,28.41-14.39-10.25,29.88-20.51,59.76-30.76,89.63Z"/>
  <path class="cls-2" d="M55.06,238.72c-1.63,2.1-2.87,3.68-4.01,5.16.02.16-.03-.24-.09-.72-.52.53-1,1.12-1.54,1.55-1.31,1.05-6.29,7.17-7.25,8.86-2.82,4.96-5.75,9.79-10.46,11.24-4.56,1.41-8.72.08-12.68-2.8,4.53,1.6,8.98.59,13.31-1.96,4.29-2.52,8.05-6.11,10.86-11.98-1.31.06-2.3.24-3.26.11-1.31-.17-1.84-1.32-1.31-3.09.41-1.38.84-2.89,1.56-3.93.88-1.27,2.18-3,3.13-2.9,1.05.11,1.9,2.07,3.12,3.57,3.23-.88,5.62-3.96,6.93-9.2,1.69-6.72,3.94-13.26,3.55-20.44-.12-2.19-.73-4.28-.96-6.44-1.26,2.76-2.53,5.52-3.78,8.25-.07-3.26,2.13-8.8,4.52-11.43.23-.26.64-.24.86.02,1.12,1.33,1.26,3.35,1.4,5.37.39,6.03-1.26,11.64-2.7,17.29-.04.16-.04.34-.08.83,1.09-.75,2.06-1.53,3.08-2.1,1.63-.92,3.27-1.82,4.94-2.51.56-.24,1.24.16,1.86.27-.12.85-.12,1.79-.39,2.54-1.8,4.89-4.3,8.94-7.63,12.05-1.71,1.59-1.67,2.84-.04,4.32,2.83,2.58,7.21,1.41,9.14-2.65-.77-.3-1.48-.58-2.19-.85,1.18-5.48,4.84-7.87,8.2-5.26.48.37.82,1.78.7,2.61-.15.98-.8,1.93-1.34,2.76-.7,1.08-1.68,2.25-.77,3.51.67.93,1.85,1.85,2.73,1.7,12.22-2.14.36-22.69-2.12-30.13-.06-.19-.41-.02-.41-.02-.91,3.53.89,13.1.97,13.6h-.62c-1.25-6.61-2.36-15.87-.82-22.35,0,0,1.26-.56,1.38-.18,3.42,10.39,17.36,36.46,2.79,43.45-4.12,1.98-5.78,1.41-7.15-4.99-2.35,2.76-4.75,5.26-7.87,5.11-3.39-.17-4.91-3.04-5.55-8.21ZM64.04,226.22c-5.32.3-10.21,5.05-10.49,9.83,3.49-3.02,7.31-5.02,10.49-9.83Z"/>
  <path class="cls-2" d="M24.02,226.96c8.14,1.45,13.79-3.97,18.36-12.78.96-1.84,1.85-3.75,2.73-5.66,1.74-3.78,4.04-6.61,6.96-8.59,1.67-1.14,3.24-2.61,4.85-3.93-.03-.28-.06-.56-.1-.85-.68-.3-1.36-.59-2.04-.89.68-5.35,5.21-8.23,8.31-5.13.42.41.63,1.76.47,2.53-.21,1-.82,1.93-1.38,2.75-.74,1.09-1.43,2.07-.76,3.61.69,1.61,1.75,2.23,3.02,1.5,1.29-.75,2.68-1.6,3.67-2.92,1.29-1.72,2.82-3.3,3.16-6.15.15-1.31,1.09-2.51,1.7-3.84,1.88,1.14,3.57,2.16,5.23,3.16-.76,3.86-1.34,4.24-3.76,4.53-1.2.15-2.53,1.17-3.55,2.26-1.23,1.31-2.19,3.13-3.29,4.69-4.24,6.02-7.43,5.34-9.34-1.75-2.71,2.05-5.53,3.86-8.1,6.24-1.69,1.56-3.18,3.76-4.46,5.99-1.35,2.35-2.33,5.11-3.51,7.65-4.02,8.62-8.38,11.14-15.3,8.85-.97-.32-1.9-.83-2.85-1.25Z"/>
  <path class="cls-2" d="M81.72,244.54c.55-1.75.9-2.94,1.29-4.1.87-2.6,1.85-5.1,2.63-7.77,1.21-4.14,1.11-8.47-.89-12.93-1.64-3.66-3.25-7.35-4.87-11.03-.18.07-.36.13-.54.2.42,3.6.83,7.21,1.25,10.81-.21,0-.43.01-.64.02-2.08-8.04-3.46-16.17-3.67-24.43.18-.13.35-.25.53-.38,2.15,4.59,4.46,9.06,6.42,13.79,2.61,6.3,4.37,12.95,5.09,20.01.77,7.55-1.38,13.32-6.6,15.8Z"/>
  <path class="cls-2" d="M18.08,250.15c3.33-1.15,6.87-1.97,10.22-3.65,3.9-1.96,6.62-6.25,8.87-11.02,1.72-3.64,3.27-7.42,5.1-10.95.66-1.28,1.9-2.01,2.88-2.99.2,1.72.4,3.43.59,5.15l-.45.65c-1.47-1.47-2.23-.42-2.89,1.18-1.64,4.02-3.26,8.06-4.97,12.02-5.09,11.75-10.99,12.55-19.15,9.84-.2-.07-.34-.41-.2-.23Z"/>
  <path class="cls-2" d="M59.23,186.28l.19-1.88c-1.22.07-2.34.13-3.08.17-1.73,3.42-3.18,6.76-5.03,9.74-1.02,1.64-2.59,3.06-4.13,3.9-3.22,1.75-5.69-.5-5.51-4.74.28-6.63,2.76-11.8,7.39-15.44,1.4-1.1,2.88-2.01,4.31-3.05,2.45-1.79,4.89-3.61,7.49-5.36-.58.73-1.08,1.64-1.75,2.17-2.55,2.02-5.15,3.97-7.76,5.86-3.01,2.18-5.67,4.82-7.39,8.59-.62,1.36-.98,3.03-1.07,4.57-.18,2.85,1.61,4.6,3.91,3.84,3.02-1,5.31-3.4,6.76-6.73.49-1.13.53-3.1.05-4.16-1.03-2.27-.15-3.96.64-6.2,1.02,2.53,2.46,3.42,4.59,2.94,1.07-.24,1.55-.8,2-1.96.87-2.24,1.73-4.56,2.95-6.51,2.04-3.27,4.92-4.85,8.72-5.44-.76,2.46-1.18,4.63-2.05,6.5-2.18,4.64-5.26,8.14-9.26,10.46-.86.5-1.39,1.91-1.95,2.73ZM61.17,179.51c3.13-1.23,7.68-5.86,8.28-8.44-3.89.52-7.59,4.29-8.28,8.44Z"/>
  <path class="cls-2" d="M62.72,168.66c-.55-.52-.82-.74-1.06-1.01-.34-.38-.66-.81-1.28-1.56,1.05-1.32,1.99-2.63,3.05-3.7.12-.12,1.35,1.28,1.27,1.55-.51,1.6-1.26,3.08-1.98,4.73Z"/>
  <path class="cls-2" d="M54.4,242.73c-2.74,3.3-4.78,6.19-6.14,8.24-6.17,9.25-6.22,12.84-6.03,14.92.42,4.59,3.55,6.21,9.13,4.62,1.13-.32,2.32-.77,3.17-1.41,5.46-4.09,8.83-9.09,10.05-14.89.43-2.06-.21-4.19-3.1-4.93-3.01-.77-5.23.69-6.52,2.61-2,3-3.64,6.15-5.41,9.21,5.04,2.04,6.45,1.36,7.28-3.3-1.01-.29-2.07-.59-3.23-.92.5-.51.82-.92,1.24-1.26,1.8-1.43,4.01-1.87,6.09-.69,2.13,1.22,1.32,3.06.05,4.26-2.31,2.18-4.91,4.23-7.7,6.04-1.97,1.28-4.49,1.53-6.83.21-1-.56-1.6-1.22-1.92-1.93-.51-1.14-.29-2.33-.04-3.19,1.52-5.2,6.95-8.78,9.34-15.69.28-.82.46-1.5.56-1.91Z"/>
  <g>
    <path class="cls-2" d="M69.57,262.69c-.6.99-1.17,2-1.79,2.98-1.28,1.99-2.51,4.01-3.89,5.93-2.67,3.72-9.12,4.23-13.3,2.41,1.09-.09,1.85-.12,2.6-.22,5.43-.7,9.44-3.64,12.49-8.03,1.39-1.99,2.64-4.08,3.97-6.12.47-.72.98-1.4,1.47-2.1l.68.47c-.12,1.01-.3,2.01-.34,3.02-.08,2.32,1.22,3.34,3.32,2.35,1.71-.81,3.22-2.05,4.78-3.17.53-.38.9-.97,1.35-1.46.16.09.31.17.47.26-.51,1.35-1.02,2.69-1.53,4.03,2.37.74,6.59-1.67,9.22-5.3,2.54-3.51,2.47-9.1-.21-12.78-.53,2.4-1.04,4.74-1.56,7.07-.02.08-.19.13-.77.49.87-4.56,1.66-8.74,2.46-12.91.22,0,.45,0,.67.01,1.67,1.6,2.28,3.79,2.48,5.96.63,6.73-.3,13.1-5.48,18.08-1.02.98-2.24,1.81-3.48,2.49-1.5.82-3.05,1-4.48-.4-.29-.29-1.1-.3-1.55-.13-.98.37-1.87,1-2.84,1.41-2.58,1.08-3.87.3-4.21-2.51-.07-.55-.07-1.1-.1-1.66-.13-.06-.26-.11-.4-.17Z"/>
    <path class="cls-2" d="M80.78,252.53c-1.02-.71-1.57-1.09-2.29-1.58.68-1.04,1.3-1.99,2.08-3.2.67.5,1.74,1.04,1.67,1.3-.27,1.13-.88,2.18-1.47,3.48Z"/>
  </g>
  <path class="cls-2" d="M84.43,197.73c8.86-30.33,18.62-60.4,29.58-90.04,0,0,2.62,1.23,2.62,1.23-11.75,18.37-37.2,19.96-49.36,1.2-3.58-5.46-5.53-11.99-5.55-18.58l2.15.04c.25,13.71-8.97,27.06-22,31.58-11.64,4.44-24.97-.27-33.27-9.06-1.24-1.3-2.37-2.53-3.43-4.03,0,0,3.8-1.87,3.8-1.87,7.66,22.23,14.96,44.58,21.95,67.03,2.36,7.48,4.62,14.98,6.83,22.51,0,0-.38.13-.38.13-1.46-3.64-2.87-7.3-4.29-10.96-4.24-10.97-8.35-21.99-12.4-33.03-7.08-19.25-14.16-39.39-20.7-58.9,0,0,8.74,12.73,8.74,12.73,1.77,2.43,4,4.62,6.33,6.53,13,11,30.27,7.97,40.35-5.31,3.75-4.96,6.05-11.07,6.29-17.39l2.15.04c-1.08,19.85,17.6,37.07,36.97,28.14,5.62-2.58,10.28-7.02,13.29-12.31,0,0,6.59-11.57,6.59-11.57-5.83,19.25-12.35,38.8-19.2,57.67-2.66,7.44-5.37,14.85-8.15,22.25-2.76,7.4-5.61,14.77-8.57,22.11,0,0-.38-.13-.38-.13h0Z"/>
  <path class="cls-2" d="M95.64,254.18c5.76,7.44,10.78,15.43,15.64,23.48-9.22.19-18.58.12-27.64,2.2-8.35,1.94-16.05,6.08-22.95,11.05-4.02-2.35-8.11-4.59-12.39-6.36-11.95-4.93-24.63-7.49-37.65-7.5,0,0-2.21,0-2.21,0l1.16-1.69c1.89-2.76,3.81-5.49,5.84-8.17,0,0,.35.2.35.2-1.33,3.08-2.76,6.1-4.23,9.1l-1.05-1.69c8.84-1.25,18.02-.78,26.75,1.49,8.69,2.32,16.97,6.3,24.19,11.63,0,0-1.6-.03-1.6-.03,5.61-3.01,11.49-5.29,17.45-7.41,9.89-3.35,20.29-6.8,30.89-6.33,0,0-1.54,2.67-1.54,2.67-3.09-5.47-6.05-11.01-8.75-16.68-.9-1.9-1.78-3.8-2.59-5.75l.35-.2h0Z"/>
  <polygon class="cls-2" points="59.38 289.12 61.55 278.31 63.37 289.18 59.38 289.12 59.38 289.12"/>
  <polygon class="cls-2" points="64.51 98.77 62.51 160.25 60.51 98.77 64.51 98.77 64.51 98.77"/>
  <path class="cls-2" d="M57.11,119.13c-3.25,4.08-7.91,6.9-12.9,8.36-8.08,3.11-17.52,3.34-25.21-.97,0,0,.04-.09.04-.09,8.05,2.57,16.95,3.53,25.06.76,4.74-1.9,9-5.18,13.01-8.06h0Z"/>
  <path class="cls-2" d="M19.08,126.46c1.84,3.78,2.99,7.78,4.02,11.83,2.2,6.52,5.34,13.15,6.32,19.85-3.02-6.31-4.59-13.1-6.63-19.75-1.47-3.83-3.29-7.96-3.71-11.93h0Z"/>
  <text class="cls-1" transform="translate(104.12 197.86)"><tspan class="cls-4"><tspan x="0" y="0"> </tspan><tspan class="cls-7" x="9.08" y="0">L</tspan><tspan x="26.67" y="0">ONDON</tspan></tspan><tspan class="cls-3"><tspan x="0" y="31.82">PERFUMES EXHIBITION</tspan></tspan></text>
  <g>
    <path class="cls-2" d="M348.77,189.08h5.98v-15.75h3.05v9.91c1.45-.72,2.64-1.51,3.95-1.93,3.91-1.23,7.5,1.14,7.73,5.19.12,2.05.99,2.75,2.9,2.67,1.39-.06,2.79-.01,4.55-.01-.92-1.27-1.64-2.15-2.25-3.11-1.18-1.87-.79-3.29,1.13-4.24,2.08-1.03,4.25-1.56,6.57-.99,3.02.75,3.9,2.52,2.57,5.33-.45.96-1.15,1.81-1.84,2.87h6.87v-15.68h2.93v19.19c-4.07-.31-8.09-.61-12.1-.92-.56-.04-1.13-.2-1.67-.14-2.04.22-4.06.7-6.1.72-1.36.02-2.74-.57-4.03-.87-1.33.29-2.76.85-4.21.88-5.3.11-10.6.04-15.86.04-1.66,5.12-4.42,6.7-9.63,5.52v-2.7c2.24-.57,5.42,1.03,6.41-2.6-1.58-.22-3.03-.24-4.37-.65-2.47-.76-3.69-3.12-3.28-5.88.38-2.58,2.58-4.74,5.02-4.94,2.53-.21,4.76,1.08,5.28,3.32.34,1.48.28,3.06.4,4.74ZM357.81,189.16c2.58,0,4.96.05,7.33-.05.47-.02,1.33-.68,1.3-.95-.15-1.22-.21-2.78-.98-3.5-.75-.7-2.41-.9-3.5-.63-2.39.57-3.65,2.41-4.14,5.13ZM345.58,188.98c0-.99.08-2.01-.02-3-.13-1.26-.75-2.29-2.18-2.21-1.52.09-2.25,1.14-2.33,2.59-.12,2.19,1.39,3.07,4.54,2.62ZM382.89,184.31c-.13-.3-.27-.61-.4-.91-1.81.13-3.62.25-5.43.38-.05.21-.1.42-.15.63.98,1.11,1.96,2.23,3.17,3.61,1.1-1.45,1.95-2.58,2.81-3.71Z"/>
    <path class="cls-2" d="M466.24,190.67c-2.38,2.71-5.49,1.69-8.2,1.37-1.98-.24-3.75-.36-5.75.02-2.32.44-4.79.1-7.29.1-.79,4.68-3.09,6.48-7.43,5.12.12-.9.24-1.83.36-2.75,3.64.17,3.92-.1,3.92-3.75,0-2.9,0-5.81,0-8.86h3.08c0,1.64-.02,3.25,0,4.85.02,1.56.78,2.4,2.4,2.39,1.53-.01,3.07,0,4.98,0-.85-1.17-1.52-2-2.09-2.9-1.4-2.16-1.08-3.76,1.3-4.53,1.96-.63,4.17-1.08,6.18-.84,3.18.39,4.04,2.49,2.62,5.37-.45.91-1.12,1.71-1.95,2.94,1.96-.11,3.73.08,5.29-.43.7-.23,1.21-1.78,1.38-2.8.44-2.76,2.25-4.74,4.88-4.98,2.4-.22,4.36.85,5.24,2.86,1.1,2.52.61,5.73-1.11,7.22-1.65,1.43-4.61,1.64-6.56.46-.44-.26-.83-.59-1.23-.88ZM472.87,186.69c.04-1.52-1.17-2.95-2.49-2.94-1.24,0-2.45,1.33-2.4,2.81.04,1.42.64,2.49,2.27,2.6,1.49.1,2.59-.94,2.63-2.47ZM455.5,188.07c1.13-1.56,1.97-2.74,2.82-3.91-.13-.25-.26-.51-.39-.76-1.82.13-3.64.26-5.47.38-.05.2-.1.41-.14.61.95,1.09,1.89,2.19,3.18,3.68Z"/>
    <path class="cls-2" d="M436.01,192.26h-12.23c-1.18,3.66-3.7,5.41-7.42,5.45-2.96.03-5.55-.78-6.89-3.71-1.29-2.84-.81-5.51,1.02-8.13.81.45,1.53.85,2.33,1.29-.24.74-.46,1.4-.68,2.06-.52,1.6-.41,3.14.93,4.27,1.57,1.32,3.42,1.45,5.31.73,1.63-.62,2.41-1.92,2.43-3.62.04-2.84.01-5.68.01-8.71,1.27.21,2.89-1.11,3.23,1.17,1.32-.7,2.59-1.62,4.01-2.1,3.86-1.32,7.63,1.21,7.92,5.26.14,1.93.02,3.87.02,6.05ZM424.08,189.05h8.76c.28-3.53-.45-4.98-2.6-5.29-2.76-.4-5.45,1.87-6.16,5.29Z"/>
    <path class="cls-2" d="M315.36,173.34h2.92v18.98c-3.3-.56-6.8,1.16-9.82-1.45-2.01,1.94-7.52,2.09-9.39.01-2.2,1.68-2.92,1.78-9.24,1.28v-2.99c1.46,0,2.93,0,4.39,0,1.22,0,2.54.29,2.56-1.67.02-2.35-.65-3.53-2.48-3.72-1.01-.1-2.03-.02-3.15-.02v-2.65c1.55,0,3.1-.18,4.59.04,2.41.35,3.6,1.85,3.86,4.4.34,3.37,2.31,4.67,5.58,3.53.45-.16.87-1.06.91-1.64.12-1.79.04-3.6.04-5.52h3.04c0,1.46-.02,2.92,0,4.39.05,2.33.57,2.84,2.87,2.87,1.03.01,2.06,0,3.32,0v-15.83Z"/>
    <path class="cls-2" d="M282.54,185.53c.83-.5,1.64-.99,2.66-1.61,1.59,3.26,2.68,6.42,1.04,9.82-1.42,2.94-4.01,4.05-7.17,3.97-2.66-.07-5.01-.86-6.3-3.39-1.45-2.84-1-5.6.76-8.45.82.43,1.58.83,2.43,1.28-.85,2.42-1.92,4.84.74,6.68,1.72,1.19,4.54,1.07,5.98-.35,2.61-2.58.92-5.24-.13-7.96Z"/>
    <path class="cls-2" d="M400.02,192.22h-2.77v-18.86h2.77v18.86Z"/>
    <path class="cls-2" d="M327.15,197.3c.12-.9.24-1.83.37-2.74,3.75.06,3.92-.11,3.93-3.79,0-2.9,0-5.8,0-8.85h3.03c0,3.68.22,7.36-.06,11-.3,3.88-3.24,5.55-7.26,4.37Z"/>
    <path class="cls-2" d="M309.94,177.51c-1.11.73-1.73,1.44-2.35,1.44-.5,0-1.47-.95-1.4-1.32.11-.62.85-1.49,1.41-1.56.55-.07,1.22.71,2.34,1.44Z"/>
    <path class="cls-2" d="M429.75,175.23c.77,1.1,1.51,1.69,1.51,2.28,0,.51-.91,1.49-1.29,1.44-.63-.09-1.52-.79-1.63-1.36-.1-.53.68-1.22,1.41-2.36Z"/>
    <path class="cls-2" d="M279.46,182.91c-.8-1.1-1.61-1.74-1.55-2.28.07-.57.91-1.33,1.53-1.45.39-.08,1.36.83,1.39,1.34.04.6-.66,1.24-1.36,2.39Z"/>
  </g>
  <path class="cls-2" d="M52.62,96.73c-5.44-6.86-8.97-17.62-3.3-25.45,3.03-4.5,8.29-6.83,12.21-10.14,5.4-4.37,6.58-10.37,5.27-16.9-1.06-6.61-3.8-12.93-6.05-19.35,0,0,.34-.2.34-.2,4.64,5.42,8.37,11.66,9.9,18.77,1.16,5.36.32,12.01-3.75,16.18-2.57,2.74-6.04,4-9.17,5.71-2.95,1.55-5.7,3.8-6.82,6.99-1.66,4.57-1.44,9.5-.65,14.25.54,3.28,1.53,6.53,2.37,9.96l-.36.18h0Z"/>
  <path class="cls-2" d="M65.98,83.06c-.86-8.54,1.58-17.69,6.91-24.5,3.55-4.87,10.78-7.89,10.63-14.64-.24-8.27-11.04-19.07-16.48-25.11-5.58-6.13-11.45-12.07-16.99-18.51l.26-.3c3.62,2.23,7.06,4.71,10.37,7.36,10.18,8.23,24.58,22.64,24.2,36.6-.09,4.51-3.32,8.05-5.82,11.43-1.24,1.69-2.39,3.38-3.45,5.11-2.14,3.41-4.03,6.94-5.55,10.73-1.53,3.78-2.64,7.73-3.68,11.85,0,0-.4-.03-.4-.03h0Z"/>
  <path class="cls-2" d="M72.4,95.33c-1.11-3.94-.27-7.99,1.28-11.65.79-2.5.97-5.21,1.95-7.67,1.32-3.76,3.57-7.21,6.67-9.76,0,0,.16.12.16.12-2.08,4.75-4.52,9.25-6.85,13.83-2.04,3.46-1.27,7.54-2.16,11.31-.24,1.26-.46,2.53-.86,3.83,0,0-.2,0-.2,0h0Z"/>
</svg>