<?xml version="1.0" encoding="UTF-8"?>
<svg id="Calque_1" xmlns="http://www.w3.org/2000/svg" xmlns:xlink="http://www.w3.org/1999/xlink" viewBox="0 0 411.76 448.39">
  <defs>
    <style>
      .cls-1 {
        font-size: 39px;
      }

      .cls-1, .cls-2 {
        fill: #fff;
      }

      .cls-3 {
        font-family: ProximaNova-Regular, 'Proxima Nova';
      }

      .cls-4 {
        font-family: ProximaNova-Bold, 'Proxima Nova';
        font-weight: 700;
      }

      .cls-5 {
        fill: url(#Dégradé_sans_nom_88);
      }

      .cls-6 {
        fill: url(#Dégradé_sans_nom_84);
      }

      .cls-7 {
        letter-spacing: -.03em;
      }
    </style>
    <linearGradient id="Dégradé_sans_nom_88" data-name="Dégradé sans nom 88" x1="3604.31" y1="118.39" x2="3589.55" y2="92.83" gradientTransform="translate(3826.17 428.68) rotate(-180)" gradientUnits="userSpaceOnUse">
      <stop offset="0" stop-color="#fff" stop-opacity="0"/>
      <stop offset="1" stop-color="#b3964f"/>
    </linearGradient>
    <linearGradient id="Dégradé_sans_nom_84" data-name="Dégradé sans nom 84" x1="195.47" y1="209.19" x2="249.96" y2="114.81" gradientUnits="userSpaceOnUse">
      <stop offset="0" stop-color="#fff" stop-opacity="0"/>
      <stop offset=".16" stop-color="#f1ecdf" stop-opacity=".18"/>
      <stop offset=".57" stop-color="#cfbd92" stop-opacity=".62"/>
      <stop offset=".86" stop-color="#bba161" stop-opacity=".89"/>
      <stop offset="1" stop-color="#b3964f"/>
    </linearGradient>
  </defs>
  <path class="cls-5" d="M205.35,324.17c13.75-9.39,27.5-18.78,41.25-28.16,5.04,8.45,10.07,16.91,15.11,25.36-7.36-.4-19.48-.14-33.26,4.52-10.69,3.62-18.65,8.63-23.83,12.5l.73-14.22Z"/>
  <path class="cls-6" d="M231.18,229.81c-8.64-14.66-17.27-29.33-25.91-43.99-.21-25.06.21-51.01,0-76.07,1.67,16.26,13.43,29.98,28.67,31.9,13.08,1.65,26.24-5,33.3-16.87-12.02,35.01-24.03,70.02-36.05,105.03Z"/>
  <path class="cls-2" d="M196.54,277.77c-1.91,2.46-3.36,4.31-4.7,6.04.02.19-.04-.28-.11-.85-.61.62-1.17,1.31-1.81,1.82-1.54,1.23-7.37,8.4-8.49,10.38-3.31,5.81-6.74,11.47-12.25,13.17-5.34,1.65-10.22.09-14.86-3.28,5.31,1.87,10.52.69,15.6-2.29,5.03-2.96,9.43-7.16,12.73-14.04-1.53.07-2.7.28-3.82.13-1.53-.2-2.16-1.54-1.54-3.62.48-1.61.98-3.38,1.83-4.61,1.03-1.49,2.55-3.51,3.67-3.39,1.23.13,2.23,2.43,3.66,4.18,3.78-1.04,6.58-4.65,8.12-10.78,1.98-7.87,4.62-15.54,4.17-23.95-.14-2.56-.86-5.01-1.12-7.55-1.48,3.23-2.96,6.46-4.43,9.66-.08-3.82,2.49-10.32,5.29-13.4.27-.3.75-.29,1.01.02,1.31,1.56,1.48,3.93,1.64,6.3.46,7.07-1.48,13.64-3.16,20.26-.05.19-.04.4-.1.97,1.27-.88,2.41-1.79,3.61-2.47,1.91-1.08,3.83-2.13,5.79-2.95.66-.28,1.45.19,2.18.32-.15,1-.14,2.09-.46,2.98-2.11,5.73-5.04,10.48-8.94,14.12-2,1.86-1.96,3.33-.05,5.07,3.32,3.02,8.45,1.65,10.7-3.11-.9-.35-1.74-.68-2.57-1,1.38-6.42,5.67-9.23,9.61-6.16.56.44.96,2.09.82,3.06-.17,1.15-.94,2.26-1.57,3.24-.82,1.27-1.97,2.63-.9,4.12.79,1.1,2.16,2.17,3.2,1.99,14.32-2.51.42-26.59-2.48-35.31-.08-.23-.48-.03-.48-.03-1.06,4.14,1.04,15.35,1.14,15.94h-.73c-1.47-7.75-2.77-18.6-.97-26.19,0,0,1.48-.65,1.62-.21,4.01,12.18,20.35,42.72,3.27,50.91-4.83,2.32-6.77,1.66-8.38-5.85-2.76,3.23-5.57,6.16-9.22,5.98-3.98-.2-5.75-3.57-6.5-9.62ZM207.06,263.12c-6.24.35-11.96,5.92-12.29,11.51,4.09-3.54,8.56-5.88,12.29-11.51Z"/>
  <path class="cls-2" d="M160.17,263.99c9.54,1.7,16.16-4.65,21.52-14.98,1.12-2.16,2.17-4.39,3.2-6.63,2.04-4.43,4.74-7.74,8.15-10.06,1.96-1.33,3.79-3.05,5.69-4.6-.04-.33-.08-.66-.11-.99-.8-.35-1.59-.7-2.39-1.05.8-6.28,6.1-9.64,9.74-6.02.49.49.74,2.07.55,2.96-.24,1.17-.97,2.26-1.61,3.22-.87,1.28-1.67,2.43-.9,4.23.81,1.88,2.05,2.61,3.53,1.76,1.51-.88,3.14-1.88,4.3-3.43,1.51-2.02,3.31-3.87,3.7-7.21.18-1.53,1.27-2.94,2-4.5,2.21,1.34,4.19,2.54,6.12,3.71-.9,4.52-1.56,4.97-4.41,5.31-1.41.17-2.96,1.38-4.16,2.65-1.44,1.53-2.57,3.66-3.86,5.5-4.97,7.05-8.7,6.26-10.95-2.05-3.17,2.4-6.48,4.53-9.5,7.31-1.98,1.83-3.73,4.4-5.23,7.02-1.59,2.76-2.73,5.99-4.11,8.96-4.71,10.1-9.82,13.06-17.93,10.37-1.14-.38-2.23-.97-3.34-1.47Z"/>
  <path class="cls-2" d="M227.79,284.59c.65-2.05,1.06-3.45,1.51-4.81,1.02-3.04,2.17-5.98,3.08-9.11,1.42-4.85,1.3-9.92-1.05-15.15-1.93-4.29-3.8-8.61-5.7-12.92-.21.08-.42.16-.63.23.49,4.22.97,8.45,1.46,12.67-.25,0-.5.02-.75.02-2.44-9.42-4.05-18.94-4.3-28.63.21-.15.42-.29.62-.44,2.52,5.38,5.23,10.61,7.53,16.16,3.06,7.38,5.12,15.18,5.96,23.45.9,8.85-1.61,15.61-7.74,18.51Z"/>
  <path class="cls-2" d="M153.21,291.17c3.9-1.35,8.05-2.31,11.98-4.28,4.57-2.29,7.76-7.32,10.4-12.91,2.01-4.26,3.83-8.7,5.97-12.83.77-1.5,2.23-2.36,3.37-3.5.23,2.01.46,4.02.7,6.03l-.53.76c-1.72-1.72-2.62-.5-3.38,1.38-1.92,4.71-3.81,9.44-5.83,14.08-5.97,13.77-12.88,14.7-22.44,11.53-.23-.08-.4-.48-.23-.27Z"/>
  <path class="cls-2" d="M201.43,216.32l.22-2.2c-1.43.08-2.75.15-3.61.2-2.03,4.01-3.73,7.92-5.9,11.41-1.2,1.93-3.03,3.59-4.84,4.57-3.77,2.05-6.66-.59-6.45-5.56.33-7.77,3.24-13.83,8.67-18.09,1.64-1.29,3.38-2.36,5.05-3.58,2.88-2.1,5.74-4.24,8.78-6.28-.68.86-1.26,1.92-2.06,2.55-2.99,2.37-6.03,4.65-9.1,6.87-3.52,2.55-6.64,5.65-8.66,10.06-.73,1.59-1.14,3.55-1.26,5.35-.21,3.34,1.89,5.39,4.58,4.5,3.54-1.17,6.23-3.99,7.93-7.89.58-1.33.63-3.63.06-4.88-1.2-2.66-.18-4.64.75-7.26,1.2,2.97,2.88,4.01,5.38,3.44,1.25-.28,1.82-.93,2.35-2.29,1.02-2.62,2.03-5.34,3.46-7.63,2.39-3.84,5.77-5.68,10.22-6.37-.89,2.88-1.38,5.43-2.41,7.62-2.55,5.44-6.17,9.54-10.86,12.26-1,.58-1.62,2.23-2.29,3.2ZM203.7,208.4c3.67-1.44,9-6.87,9.7-9.89-4.56.61-8.89,5.03-9.7,9.89Z"/>
  <path class="cls-2" d="M205.52,195.68c-.64-.61-.96-.87-1.24-1.18-.4-.45-.78-.94-1.5-1.83,1.23-1.55,2.33-3.08,3.57-4.34.14-.14,1.59,1.5,1.49,1.81-.6,1.88-1.47,3.61-2.32,5.54Z"/>
  <path class="cls-2" d="M195.77,282.47c-3.21,3.87-5.6,7.25-7.2,9.65-7.23,10.84-7.29,15.05-7.06,17.48.49,5.38,4.16,7.28,10.7,5.41,1.33-.38,2.71-.9,3.71-1.65,6.4-4.79,10.35-10.65,11.77-17.45.51-2.41-.24-4.91-3.63-5.78-3.53-.9-6.13.8-7.64,3.06-2.35,3.52-4.26,7.21-6.34,10.8,5.9,2.39,7.56,1.59,8.53-3.87-1.18-.34-2.42-.69-3.79-1.08.59-.6.96-1.08,1.46-1.47,2.11-1.67,4.7-2.19,7.14-.81,2.5,1.43,1.55,3.59.06,4.99-2.71,2.56-5.75,4.96-9.02,7.08-2.31,1.5-5.26,1.8-8,.25-1.17-.66-1.87-1.42-2.25-2.27-.59-1.34-.34-2.73-.05-3.74,1.78-6.09,8.14-10.28,10.95-18.38.33-.96.54-1.76.65-2.23Z"/>
  <g>
    <path class="cls-2" d="M213.54,305.86c-.7,1.16-1.37,2.35-2.1,3.49-1.5,2.33-2.94,4.7-4.56,6.95-3.13,4.36-10.69,4.96-15.58,2.83,1.27-.1,2.16-.14,3.04-.26,6.36-.83,11.07-4.27,14.64-9.41,1.62-2.34,3.09-4.78,4.65-7.17.55-.84,1.14-1.64,1.72-2.46l.79.55c-.14,1.18-.35,2.36-.39,3.54-.1,2.72,1.44,3.92,3.89,2.75,2-.95,3.78-2.4,5.6-3.71.62-.44,1.06-1.13,1.58-1.71.18.1.37.2.55.3-.6,1.58-1.19,3.15-1.79,4.72,2.78.86,7.72-1.96,10.8-6.21,2.98-4.12,2.9-10.67-.25-14.98-.62,2.81-1.21,5.55-1.83,8.28-.02.1-.23.15-.91.58,1.02-5.34,1.95-10.24,2.88-15.13.26,0,.52,0,.79.01,1.96,1.88,2.67,4.45,2.91,6.99.74,7.89-.35,15.35-6.43,21.19-1.2,1.15-2.62,2.12-4.08,2.91-1.76.96-3.58,1.17-5.25-.47-.34-.34-1.29-.35-1.82-.16-1.15.43-2.19,1.17-3.33,1.65-3.03,1.27-4.54.35-4.94-2.94-.08-.64-.08-1.29-.12-1.94-.15-.06-.31-.13-.46-.19Z"/>
    <path class="cls-2" d="M226.68,293.96c-1.2-.83-1.84-1.27-2.68-1.85.79-1.22,1.52-2.34,2.44-3.75.78.59,2.04,1.22,1.96,1.52-.32,1.32-1.03,2.55-1.72,4.08Z"/>
  </g>
  <path class="cls-2" d="M230.9,229.72c5.42-20.11,11.73-40.01,18.16-59.81,5.07-15.35,10.28-30.76,16.08-45.85,0,0,3.98,1.86,3.98,1.86-9.45,15.01-30.2,22.16-45.97,12.99-11.95-6.6-19.01-20.09-19.16-33.62,0,0,3.22.05,3.22.05.42,16.26-10.48,32.18-25.93,37.57-16.06,6.18-34.15-2.13-43.78-15.53,0,0,5.7-2.8,5.7-2.8,6.01,17.36,11.71,34.82,17.27,52.32,5.55,17.52,10.92,35.1,15.86,52.8,0,0-.57.19-.57.19-1.78-4.24-3.47-8.52-5.17-12.79-5.13-12.79-10.02-25.68-14.84-38.6-8.7-23.21-17.4-47.93-25.24-71.54.79,1.09,13.45,18.52,13.86,18.81,8.39,10.03,22.2,16.5,35.12,11.92,13.64-4.46,23.9-17.92,24.5-32.41,0,0,3.22.05,3.22.05-.93,14.36,7.7,29.65,21.8,34.16,13.99,4.86,29.64-3.37,36.32-15.87,0,0,10.12-18.15,10.12-18.15-7.2,24.01-15.26,49.18-23.96,72.6-6.33,17.41-12.85,34.74-20.03,51.83,0,0-.57-.19-.57-.19h0Z"/>
  <path class="cls-2" d="M247.36,295.85c7.57,8.73,14.04,18.39,20.32,28.07-11.68.38-23.56.07-35.09,2.26-10,2.06-19.3,6.8-27.61,12.59,0,0-.96.66-.96.66l-1.32-.7c-19.6-10.73-41.89-15.65-64.17-15.79,2.99-3.99,6.02-8.05,9.24-11.86,0,0,.51.32.51.32-.79,1.84-1.62,3.66-2.47,5.46-.85,1.81-1.73,3.59-2.62,5.37l-1.52-2.53c22.05-3.58,45.29,2.27,63.38,15.29,0,0-2.28-.04-2.28-.04,7.09-3.45,14.45-5.99,21.87-8.48,12.3-3.95,25.12-8.49,38.25-7.76,0,0-2.27,4.04-2.27,4.04-3.81-6.44-7.41-12.99-10.67-19.73-1.08-2.26-2.14-4.53-3.09-6.87l.51-.32h0Z"/>
  <polygon class="cls-2" points="203.11 336.84 205.31 324.17 207.11 336.9 203.11 336.84 203.11 336.84"/>
  <polygon class="cls-2" points="207.27 113.78 205.27 185.82 203.27 113.78 207.27 113.78 207.27 113.78"/>
  <text class="cls-1" transform="translate(123.94 386.69)"><tspan class="cls-4"><tspan class="cls-7" x="0" y="0">L</tspan><tspan x="19.34" y="0">ONDON</tspan></tspan><tspan class="cls-3"><tspan x="-123.94" y="35">PERFUMES EXHIBITION</tspan></tspan></text>
  <path class="cls-2" d="M198.94,137.63c-3.88,4.71-9.3,8.02-15.12,9.78-9.47,3.61-20.48,3.79-29.53-1.12,0,0,.04-.09.04-.09,9.4,3.16,19.88,4.18,29.38.9,5.58-2.2,10.6-5.97,15.23-9.48h0Z"/>
  <path class="cls-2" d="M154.37,146.23c2.06,4.46,3.44,9.14,4.69,13.87,2.58,7.65,6.09,15.41,7.44,23.25-3.39-7.45-5.34-15.37-7.75-23.14-1.7-4.51-3.73-9.32-4.39-13.97h0Z"/>
  <g>
    <path class="cls-2" d="M182.65,441.07h4.82v-12.7h2.46v7.99c1.17-.58,2.13-1.22,3.18-1.55,3.15-.99,6.04.92,6.23,4.19.1,1.65.8,2.22,2.33,2.15,1.12-.05,2.25,0,3.67,0-.74-1.02-1.33-1.74-1.81-2.51-.95-1.51-.64-2.65.91-3.42,1.68-.83,3.43-1.26,5.3-.8,2.44.6,3.15,2.04,2.08,4.3-.37.78-.93,1.46-1.49,2.32h5.54v-12.64h2.36v15.48c-3.28-.25-6.52-.49-9.76-.74-.45-.03-.91-.16-1.35-.11-1.64.18-3.28.56-4.92.58-1.1.01-2.21-.46-3.25-.7-1.07.24-2.23.69-3.39.71-4.27.09-8.55.04-12.79.04-1.34,4.13-3.56,5.4-7.76,4.45v-2.18c1.81-.46,4.37.83,5.17-2.1-1.28-.18-2.45-.19-3.52-.52-1.99-.61-2.97-2.51-2.64-4.74.31-2.08,2.08-3.82,4.05-3.98,2.04-.17,3.84.87,4.26,2.68.28,1.19.22,2.47.33,3.83ZM189.94,441.13c2.08,0,4,.04,5.91-.04.38-.02,1.07-.55,1.04-.77-.12-.98-.17-2.24-.79-2.82-.6-.56-1.94-.72-2.82-.51-1.93.46-2.95,1.95-3.34,4.14ZM180.08,440.98c0-.8.07-1.62-.02-2.42-.11-1.02-.6-1.85-1.76-1.78-1.23.07-1.82.92-1.88,2.09-.1,1.76,1.12,2.47,3.66,2.11ZM210.17,437.22c-.11-.24-.22-.49-.32-.73-1.46.1-2.92.2-4.38.3-.04.17-.08.34-.12.51.79.9,1.58,1.8,2.56,2.91.89-1.17,1.57-2.08,2.26-2.99Z"/>
    <path class="cls-2" d="M277.38,442.35c-1.92,2.18-4.43,1.36-6.61,1.1-1.6-.19-3.02-.29-4.64.01-1.87.36-3.86.08-5.88.08-.64,3.78-2.49,5.22-5.99,4.13.1-.73.2-1.48.29-2.22,2.93.14,3.16-.08,3.16-3.02,0-2.34,0-4.68,0-7.14h2.49c0,1.32-.01,2.62,0,3.91.02,1.26.63,1.94,1.93,1.93,1.24,0,2.47,0,4.01,0-.68-.94-1.22-1.62-1.69-2.33-1.13-1.74-.87-3.03,1.05-3.65,1.58-.51,3.37-.87,4.98-.67,2.56.32,3.26,2.01,2.11,4.33-.36.73-.9,1.38-1.57,2.37,1.58-.09,3.01.06,4.26-.34.57-.18.98-1.43,1.11-2.26.36-2.23,1.82-3.82,3.93-4.01,1.94-.17,3.52.69,4.22,2.3.89,2.03.49,4.62-.9,5.82-1.33,1.15-3.72,1.33-5.29.37-.35-.21-.67-.48-.99-.71ZM282.72,439.14c.03-1.22-.94-2.38-2.01-2.37-1,0-1.97,1.07-1.94,2.26.03,1.15.52,2.01,1.83,2.1,1.2.08,2.08-.76,2.12-1.99ZM268.71,440.25c.91-1.26,1.59-2.21,2.28-3.16-.11-.2-.21-.41-.32-.61-1.47.1-2.94.21-4.41.31-.04.16-.08.33-.12.49.76.88,1.53,1.76,2.57,2.97Z"/>
    <path class="cls-2" d="M253,443.63h-9.86c-.96,2.95-2.99,4.36-5.98,4.39-2.39.02-4.48-.63-5.55-2.99-1.04-2.29-.66-4.44.82-6.55.65.36,1.23.68,1.88,1.04-.2.6-.37,1.13-.55,1.66-.42,1.29-.33,2.53.75,3.44,1.26,1.06,2.76,1.17,4.28.59,1.32-.5,1.94-1.55,1.96-2.92.03-2.29,0-4.58,0-7.03,1.03.17,2.33-.89,2.6.95,1.06-.57,2.09-1.3,3.24-1.69,3.11-1.07,6.16.97,6.39,4.24.11,1.55.02,3.12.02,4.88ZM243.38,441.04h7.07c.22-2.85-.36-4.01-2.1-4.26-2.23-.32-4.39,1.51-4.97,4.26Z"/>
    <path class="cls-2" d="M155.71,428.38h2.35v15.3c-2.66-.45-5.49.93-7.92-1.17-1.62,1.56-6.06,1.69-7.58,0-1.77,1.35-2.36,1.44-7.45,1.03v-2.41c1.18,0,2.36,0,3.54,0,.98,0,2.04.23,2.06-1.35.02-1.9-.52-2.85-2-3-.81-.08-1.64-.01-2.54-.01v-2.14c1.25,0,2.5-.14,3.7.03,1.94.28,2.9,1.49,3.11,3.55.28,2.72,1.86,3.76,4.5,2.84.37-.13.71-.85.74-1.32.1-1.45.03-2.9.03-4.45h2.45c0,1.17-.02,2.36,0,3.54.04,1.88.46,2.29,2.31,2.32.83.01,1.66,0,2.68,0v-12.76Z"/>
    <path class="cls-2" d="M129.25,438.2c.67-.4,1.32-.8,2.15-1.3,1.28,2.63,2.16,5.18.84,7.92-1.15,2.37-3.23,3.27-5.78,3.2-2.15-.06-4.04-.69-5.08-2.73-1.17-2.29-.81-4.51.61-6.81.66.35,1.27.67,1.96,1.03-.69,1.95-1.55,3.9.59,5.39,1.39.96,3.66.86,4.82-.28,2.1-2.08.74-4.22-.11-6.42Z"/>
    <path class="cls-2" d="M223.98,443.6h-2.23v-15.21h2.23v15.21Z"/>
    <path class="cls-2" d="M165.22,447.69c.1-.73.2-1.47.29-2.21,3.02.05,3.16-.09,3.17-3.06,0-2.34,0-4.68,0-7.13h2.44c0,2.97.18,5.94-.05,8.87-.24,3.13-2.61,4.48-5.85,3.52Z"/>
    <path class="cls-2" d="M151.34,431.74c-.9.59-1.4,1.16-1.89,1.16-.4,0-1.18-.76-1.13-1.07.09-.5.68-1.2,1.13-1.26.45-.06.99.57,1.89,1.16Z"/>
    <path class="cls-2" d="M247.95,429.9c.62.88,1.22,1.36,1.22,1.84,0,.41-.73,1.2-1.04,1.16-.51-.08-1.23-.64-1.32-1.1-.08-.42.55-.98,1.14-1.91Z"/>
    <path class="cls-2" d="M126.77,436.09c-.64-.89-1.3-1.4-1.25-1.84.05-.46.73-1.07,1.23-1.17.31-.06,1.1.67,1.12,1.08.03.48-.53,1-1.1,1.93Z"/>
  </g>
  <path class="cls-2" d="M191.11,115.93c-7.42-7.7-12.13-21.44-3.85-30.2,5.86-6.13,14.69-8.3,20.22-14.57,6.9-7.4,3.14-18.03-.19-26.48-1.53-3.77-3.35-7.47-5-11.38l.41-.29c9.24,9.11,18.93,24.41,11.06,37.15-4.47,7.37-14.22,7.88-20.45,12.7-6.35,5.01-6.74,13.57-5.23,21.05.65,3.45,2.4,8.35,3.46,11.75,0,0-.43.26-.43.26h0Z"/>
  <path class="cls-2" d="M209.35,97.26c-1.01-10.67,2.92-21.85,10.29-29.63,4.76-5.45,14.48-8.62,13.73-17.05-1.61-11.68-20.2-25.83-28.77-34.21-5.7-5.29-11.56-10.38-17.01-15.96,0,0,.29-.4.29-.4,6.96,3.6,13.61,7.9,19.82,12.65,11.01,8.36,30.62,26.69,26.78,41.95-1.23,3.91-4.38,6.86-6.89,9.85-3.35,3.85-6.33,7.75-9.06,11.98-2.68,4.21-4.79,8.74-6.47,13.48-.84,2.4-1.54,4.86-2.23,7.39l-.5-.04h0Z"/>
  <path class="cls-2" d="M218.09,114.02c-.99-3.53-1.02-7.27-.15-10.8.5-1.75,1.34-3.41,1.86-5.12,1.11-3.42,1.25-7.15,2.59-10.51,1.78-5.17,4.88-9.88,9.22-13.28,0,0,.24.18.24.18-2.08,5.05-4.34,9.53-6.85,14.23-1.47,3.14-3.63,6.14-4.26,9.62-.46,3.49-.22,7.02-1.08,10.47-.35,1.72-.68,3.45-1.27,5.21,0,0-.3,0-.3,0h0Z"/>
</svg>