<?xml version="1.0" encoding="UTF-8"?>
<svg id="Calque_1" xmlns="http://www.w3.org/2000/svg" xmlns:xlink="http://www.w3.org/1999/xlink" viewBox="0 0 217.57 470.59">
  <defs>
    <style>
      .cls-1 {
        fill: #fff;
      }

      .cls-2 {
        fill: url(#Dégradé_sans_nom_88);
      }

      .cls-3 {
        fill: url(#Dégradé_sans_nom_84);
      }
    </style>
    <linearGradient id="Dégradé_sans_nom_88" data-name="Dégradé sans nom 88" x1="3505.25" y1="41.63" x2="3484.75" y2="6.1" gradientTransform="translate(3651.71 472.72) rotate(-180)" gradientUnits="userSpaceOnUse">
      <stop offset="0" stop-color="#fff" stop-opacity="0"/>
      <stop offset="1" stop-color="#b3964f"/>
    </linearGradient>
    <linearGradient id="Dégradé_sans_nom_84" data-name="Dégradé sans nom 84" x1="109.78" y1="290.61" x2="185.51" y2="159.45" gradientUnits="userSpaceOnUse">
      <stop offset="0" stop-color="#fff" stop-opacity="0"/>
      <stop offset=".16" stop-color="#f1ecdf" stop-opacity=".18"/>
      <stop offset=".57" stop-color="#cfbd92" stop-opacity=".62"/>
      <stop offset=".86" stop-color="#bba161" stop-opacity=".89"/>
      <stop offset="1" stop-color="#b3964f"/>
    </linearGradient>
  </defs>
  <path class="cls-2" d="M123.51,450.37c19.11-13.05,38.22-26.09,57.32-39.14,7,11.75,14,23.49,20.99,35.24-10.23-.55-27.07-.2-46.21,6.28-14.86,5.03-25.91,12-33.12,17.38.34-6.59.67-13.18,1.01-19.77Z"/>
  <path class="cls-3" d="M159.41,319.26c-12-20.38-24-40.75-36.01-61.13-.3-34.82.3-70.88,0-105.7,2.32,22.59,18.67,41.66,39.83,44.32,18.17,2.29,36.46-6.95,46.27-23.44-16.7,48.65-33.4,97.3-50.09,145.95Z"/>
  <path class="cls-1" d="M111.27,385.9c-2.66,3.41-4.67,6-6.54,8.4.03.26-.05-.39-.15-1.18-.85.87-1.63,1.82-2.51,2.53-2.14,1.71-10.24,11.67-11.8,14.43-4.6,8.07-9.37,15.94-17.03,18.3-7.43,2.29-14.2.13-20.65-4.55,7.38,2.6,14.62.96,21.67-3.19,6.98-4.11,13.11-9.95,17.69-19.51-2.13.09-3.75.39-5.3.18-2.13-.28-3-2.14-2.14-5.04.67-2.24,1.36-4.7,2.54-6.4,1.44-2.07,3.55-4.88,5.09-4.72,1.71.18,3.1,3.37,5.09,5.81,5.25-1.44,9.14-6.46,11.28-14.98,2.75-10.94,6.42-21.59,5.79-33.28-.19-3.56-1.19-6.96-1.56-10.49-2.06,4.49-4.12,8.98-6.16,13.43-.11-5.31,3.46-14.33,7.36-18.62.38-.42,1.04-.4,1.4.03,1.83,2.17,2.06,5.46,2.27,8.75.64,9.82-2.06,18.95-4.39,28.15-.07.26-.06.55-.14,1.35,1.77-1.22,3.35-2.48,5.01-3.43,2.65-1.5,5.33-2.96,8.05-4.09.92-.38,2.02.26,3.03.44-.2,1.39-.19,2.91-.64,4.14-2.93,7.96-7,14.56-12.43,19.62-2.78,2.59-2.72,4.63-.07,7.04,4.61,4.19,11.74,2.29,14.88-4.32-1.25-.49-2.41-.94-3.57-1.39,1.92-8.93,7.88-12.82,13.36-8.56.78.61,1.33,2.91,1.14,4.25-.24,1.6-1.31,3.14-2.19,4.5-1.14,1.77-2.74,3.66-1.25,5.72,1.09,1.52,3.01,3.01,4.45,2.76,19.9-3.48.58-36.94-3.45-49.06-.11-.32-.67-.03-.67-.03-1.48,5.75,1.45,21.32,1.59,22.15l-1.01-.02c-2.04-10.75-3.85-25.83-1.34-36.38,0,0,2.05-.91,2.25-.3,5.57,16.92,28.27,59.36,4.54,70.74-6.71,3.22-9.41,2.3-11.65-8.13-3.83,4.49-7.73,8.56-12.82,8.31-5.53-.27-7.99-4.96-9.03-13.37ZM125.89,365.55c-8.66.49-16.62,8.22-17.08,16,5.68-4.91,11.9-8.17,17.08-16Z"/>
  <path class="cls-1" d="M60.73,366.75c13.26,2.37,22.46-6.47,29.9-20.81,1.56-3,3.02-6.11,4.45-9.22,2.84-6.15,6.59-10.76,11.33-13.98,2.72-1.85,5.27-4.24,7.9-6.39-.05-.46-.11-.92-.16-1.38-1.11-.48-2.21-.97-3.33-1.46,1.11-8.72,8.48-13.4,13.53-8.36.68.68,1.03,2.87.77,4.12-.34,1.63-1.34,3.15-2.24,4.47-1.21,1.78-2.32,3.37-1.25,5.87,1.13,2.62,2.85,3.63,4.91,2.44,2.1-1.22,4.36-2.61,5.97-4.76,2.1-2.81,4.6-5.38,5.14-10.02.25-2.13,1.77-4.09,2.77-6.25,3.07,1.86,5.82,3.52,8.51,5.15-1.24,6.29-2.17,6.9-6.13,7.38-1.96.24-4.12,1.91-5.78,3.68-2.01,2.13-3.57,5.09-5.36,7.64-6.9,9.8-12.09,8.7-15.21-2.85-4.41,3.33-9.01,6.29-13.19,10.16-2.76,2.55-5.18,6.12-7.27,9.75-2.2,3.83-3.79,8.32-5.72,12.45-6.55,14.03-13.65,18.14-24.91,14.4-1.58-.52-3.1-1.35-4.64-2.04Z"/>
  <path class="cls-1" d="M154.69,395.37c.9-2.85,1.47-4.8,2.1-6.68,1.42-4.23,3.01-8.31,4.29-12.66,1.98-6.74,1.81-13.78-1.46-21.05-2.68-5.96-5.29-11.97-7.93-17.95-.29.11-.59.22-.88.33.68,5.87,1.35,11.74,2.03,17.61-.35.01-.69.02-1.04.03-3.38-13.09-5.63-26.32-5.98-39.78.29-.2.58-.41.87-.61,3.51,7.47,7.27,14.75,10.46,22.45,4.25,10.26,7.12,21.09,8.29,32.59,1.25,12.29-2.24,21.69-10.75,25.73Z"/>
  <path class="cls-1" d="M51.06,404.51c5.42-1.88,11.19-3.2,16.65-5.95,6.35-3.19,10.79-10.17,14.45-17.94,2.79-5.92,5.33-12.08,8.3-17.83,1.08-2.08,3.1-3.27,4.69-4.87.32,2.79.65,5.59.97,8.38l-.74,1.06c-2.39-2.39-3.64-.69-4.7,1.92-2.67,6.54-5.3,13.12-8.1,19.57-8.29,19.13-17.9,20.43-31.18,16.03-.33-.11-.55-.66-.33-.37Z"/>
  <path class="cls-1" d="M118.06,300.51l.3-3.06c-1.98.11-3.82.21-5.01.28-2.82,5.57-5.18,11.01-8.19,15.85-1.66,2.68-4.21,4.98-6.73,6.35-5.24,2.85-9.26-.82-8.97-7.72.46-10.8,4.5-19.21,12.04-25.14,2.27-1.79,4.7-3.28,7.02-4.97,4-2.92,7.97-5.89,12.2-8.73-.94,1.2-1.75,2.66-2.86,3.54-4.16,3.29-8.38,6.47-12.64,9.55-4.9,3.54-9.23,7.85-12.04,13.98-1.01,2.21-1.59,4.93-1.75,7.44-.3,4.65,2.63,7.49,6.37,6.25,4.91-1.63,8.65-5.54,11.02-10.96.8-1.84.87-5.05.08-6.78-1.67-3.69-.25-6.45,1.04-10.09,1.67,4.12,4.01,5.57,7.47,4.79,1.74-.39,2.53-1.3,3.26-3.18,1.42-3.65,2.82-7.42,4.8-10.61,3.32-5.33,8.02-7.89,14.2-8.85-1.23,4-1.92,7.54-3.35,10.59-3.55,7.56-8.57,13.25-15.08,17.04-1.39.81-2.26,3.1-3.18,4.45ZM121.22,289.5c5.1-2,12.51-9.55,13.48-13.74-6.33.85-12.36,6.99-13.48,13.74Z"/>
  <path class="cls-1" d="M123.75,271.83c-.89-.84-1.33-1.21-1.72-1.65-.56-.63-1.08-1.31-2.08-2.54,1.7-2.15,3.24-4.27,4.96-6.03.19-.2,2.21,2.09,2.07,2.52-.83,2.61-2.05,5.02-3.23,7.7Z"/>
  <path class="cls-1" d="M110.2,392.43c-4.46,5.38-7.78,10.08-10,13.42-10.04,15.06-10.12,20.91-9.81,24.29.69,7.48,5.78,10.11,14.87,7.52,1.84-.53,3.77-1.26,5.16-2.3,8.89-6.65,14.38-14.8,16.36-24.24.7-3.35-.34-6.82-5.05-8.03-4.91-1.25-8.52,1.12-10.61,4.25-3.26,4.88-5.92,10.01-8.81,15,8.2,3.32,10.51,2.21,11.85-5.37-1.65-.47-3.36-.96-5.26-1.51.82-.83,1.34-1.5,2.03-2.04,2.93-2.32,6.53-3.05,9.92-1.12,3.48,1.98,2.15,4.99.08,6.94-3.76,3.55-7.99,6.89-12.53,9.84-3.21,2.09-7.31,2.5-11.12.34-1.63-.92-2.6-1.98-3.12-3.15-.82-1.86-.48-3.79-.07-5.2,2.48-8.46,11.32-14.29,15.21-25.54.46-1.34.75-2.45.91-3.1Z"/>
  <g>
    <path class="cls-1" d="M134.89,424.93c-.97,1.62-1.9,3.26-2.92,4.85-2.08,3.24-4.09,6.53-6.33,9.65-4.35,6.06-14.85,6.89-21.65,3.93,1.77-.15,3-.2,4.23-.36,8.84-1.15,15.38-5.93,20.34-13.08,2.26-3.25,4.3-6.64,6.46-9.96.76-1.16,1.59-2.28,2.39-3.42l1.1.77c-.19,1.64-.49,3.28-.55,4.92-.13,3.78,1.99,5.45,5.4,3.82,2.78-1.33,5.25-3.34,7.78-5.16.86-.62,1.47-1.57,2.2-2.37.26.14.51.28.77.42-.83,2.19-1.66,4.38-2.49,6.56,3.86,1.2,10.73-2.72,15.01-8.63,4.14-5.72,4.03-14.82-.35-20.82-.86,3.9-1.69,7.71-2.54,11.51-.03.13-.31.21-1.26.8,1.41-7.42,2.71-14.22,4-21.02.36,0,.73.01,1.09.02,2.73,2.61,3.71,6.18,4.04,9.71,1.02,10.97-.49,21.33-8.93,29.44-1.66,1.6-3.64,2.95-5.67,4.05-2.45,1.33-4.97,1.62-7.29-.66-.48-.47-1.79-.49-2.53-.22-1.6.6-3.04,1.63-4.62,2.29-4.2,1.76-6.31.49-6.86-4.09-.11-.89-.12-1.8-.17-2.7-.22-.09-.43-.18-.65-.27Z"/>
    <path class="cls-1" d="M153.15,408.39c-1.66-1.15-2.56-1.77-3.72-2.57,1.1-1.7,2.11-3.25,3.39-5.21,1.09.81,2.83,1.69,2.73,2.12-.44,1.84-1.43,3.54-2.39,5.67Z"/>
  </g>
  <path class="cls-1" d="M159.12,319.16c14.6-49.3,30.57-98.3,48.31-146.56,0,0,3.93,1.84,3.93,1.84-14.86,23.74-47.14,32.11-69.54,13.78-12.46-10.08-19.57-26.01-19.57-41.98,0,0,3.23.05,3.23.05.36,22.25-14.62,43.88-35.76,51.2-21.93,8.27-46.28-3.05-59.45-21.25,0,0,5.7-2.8,5.7-2.8,8.19,23.72,16.5,48.73,24.25,72.62,7.88,24.28,15.58,48.62,22.85,73.1,0,0-.57.19-.57.19-2.36-5.94-4.63-11.9-6.92-17.86-6.88-17.87-13.52-35.83-20.08-53.82-10.96-30.04-22.14-61.66-32.33-92.01,0,0,12.43,17.05,12.43,17.05l.47.64c2.86,3.74,6.26,7.08,9.91,10.06,21.36,17.98,49.5,13.04,66.04-8.74,6.12-8.11,9.86-18.11,10.23-28.43,0,0,3.23.05,3.23.05-1.04,20.15,11.03,41.46,30.8,47.82,19.63,6.84,41.67-4.46,51.35-21.94,0,0,9.93-17.35,9.93-17.35l-6,19.19c-7.63,24.47-16.21,48.9-24.82,73.05-8.67,24.23-17.53,48.38-27.05,72.29,0,0-.57-.19-.57-.19h0Z"/>
  <path class="cls-1" d="M181.79,411.08c8.61,10.87,16.36,22.37,23.88,34.01,0,0,2.56,3.98,2.56,3.98-12.16.11-24.39.48-36.49,1.9-17.68,2-34.49,9.12-49.18,18.96,0,0-1.01.66-1.01.66-27.06-15.7-58.39-23.01-89.59-22.45,3.8-5.34,7.62-10.71,11.64-15.89,0,0,.51.32.51.32-1.2,2.5-2.43,4.98-3.69,7.43-1.25,2.46-2.54,4.91-3.83,7.35l-1.52-2.53c22.83-3.02,46.57.41,67.52,10.06,7.01,3.16,13.77,6.87,20.05,11.27,0,0-2.28-.04-2.28-.04,8.08-4.13,16.46-7.46,24.98-10.44,18.72-6.35,38.09-12.61,58.12-11.84,0,0-2.27,4.04-2.27,4.04-5.34-8.9-10.48-17.93-15.27-27.14-1.59-3.08-3.16-6.17-4.63-9.34,0,0,.51-.32.51-.32h0Z"/>
  <polygon class="cls-1" points="120.18 467.99 122.46 450.37 124.18 468.05 120.18 467.99 120.18 467.99"/>
  <polygon class="cls-1" points="125.4 158.02 123.4 258.13 121.4 158.02 125.4 158.02 125.4 158.02"/>
  <path class="cls-1" d="M114.59,191.15c-5.53,6.38-12.99,10.97-21.01,13.56-7.95,2.82-16.46,4.29-24.89,3.26-5.5-.74-11.42-2.19-16.07-4.88,10.46,3.85,21.75,5.2,32.77,3.39,11.11-1.64,20.83-8.46,29.2-15.34h0Z"/>
  <path class="cls-1" d="M52.65,203.12c2.66,6.27,4.64,12.75,6.48,19.29,3.57,10.66,8.07,21.43,10.42,32.28-4.38-10.46-7.32-21.39-10.73-32.17-2.29-6.31-4.93-12.93-6.17-19.39h0Z"/>
  <path class="cls-1" d="M103.81,160.97c-9.43-11.07-15.78-29.35-5-41.6,7.83-8.82,20.26-11.55,28.2-19.99,13.98-14.34-.47-38.36-7.66-53.22,0,0,.41-.29.41-.29,3.99,4.27,7.55,8.94,10.64,13.98,4.59,7.79,8.41,16.54,7.71,25.83-.57,9.04-6.02,16.47-14.12,20.35-11.42,5.5-22.97,8.21-25.71,22.49-1.75,7.89.19,16.44,2.91,24.11.95,2.68,2.01,5.36,3.05,8.09l-.43.26h0Z"/>
  <path class="cls-1" d="M129.17,135.07c-.71-14.64,4.82-29.85,14.82-40.65,4.87-5.38,11.41-9.08,15.92-14.63,7.14-9.12-.3-20.5-6.46-27.99C137.33,32.57,117.26,17.57,98.89.4c0,0,.29-.4.29-.4,17.24,10.01,33.56,21.92,47.17,36.57,8.87,9.78,21.1,25.01,17.39,39.13-1.7,5.36-6.04,9.31-9.67,13.38-7.17,7.77-13.57,16.16-17.93,25.8-2.94,6.37-4.97,13.16-6.47,20.24,0,0-.5-.04-.5-.04h0Z"/>
  <path class="cls-1" d="M141.27,158.36c-.99-4.92-.88-10.04.21-14.93.61-2.44,1.6-4.77,2.29-7.15,1.44-4.76,2.04-9.8,3.93-14.44,2.6-7.05,6.75-13.58,12.35-18.64,0,0,.24.18.24.18-3.33,6.71-6.66,13-9.99,19.59-1.83,3.93-4.83,9.29-5.59,13.55-.8,4.83-.78,9.74-1.78,14.55-.4,2.41-.77,4.83-1.36,7.29,0,0-.3,0-.3,0h0Z"/>
</svg>